<svg width="29" height="29" viewBox="0 0 29 29" fill="none" xmlns="http://www.w3.org/2000/svg">
<rect x="0.5" y="0.0117188" width="28.5" height="28.5" rx="8" fill="#00A747" fill-opacity="0.2"/>
<path d="M14.3094 11.8455C14.1803 11.6303 13.9442 11.5026 13.6935 11.5122C13.4427 11.5218 13.2172 11.6673 13.105 11.8917L11.92 14.2617H11.6574C11.2777 14.2617 10.9699 14.5695 10.9699 14.9492C10.9699 15.3289 11.2777 15.6367 11.6574 15.6367H12.3449C12.6053 15.6367 12.8433 15.4896 12.9598 15.2567L13.7747 13.6268L15.1928 15.9904C15.3141 16.1925 15.5304 16.3184 15.766 16.324C16.0016 16.3296 16.2237 16.2142 16.3544 16.0181L17.5253 14.2617H17.8449C18.2246 14.2617 18.5324 13.9539 18.5324 13.5742C18.5324 13.1945 18.2246 12.8867 17.8449 12.8867H17.1574C16.9275 12.8867 16.7128 13.0016 16.5853 13.1928L15.813 14.3514L14.3094 11.8455Z" fill="#00A747"/>
<path fill-rule="evenodd" clip-rule="evenodd" d="M14.5313 8.21883C14.1987 8.12929 13.8887 8.01541 13.5642 7.89375L13.501 7.87001C13.2039 7.7584 12.8841 7.63828 12.5582 7.54811C11.8239 7.34494 11.0271 7.28411 10.0741 7.66217C7.86387 8.53889 6.89404 10.9163 7.26766 13.1394C7.55802 14.8671 8.698 16.4155 9.90841 17.6365C11.1324 18.8712 12.5086 19.8507 13.4071 20.434C14.2281 20.967 15.2741 20.967 16.0952 20.434C16.9937 19.8507 18.3699 18.8712 19.5938 17.6365C20.8042 16.4155 21.9442 14.8671 22.2346 13.1394C22.6082 10.9163 21.6384 8.5389 19.4282 7.66217C18.4751 7.28411 17.6783 7.34494 16.9441 7.54811C16.6182 7.63829 16.2984 7.7584 16.0012 7.87001L15.938 7.89375C15.6136 8.01542 15.3036 8.12929 14.9709 8.21883C14.8272 8.25752 14.6751 8.25752 14.5313 8.21883ZM10.5811 8.94029C11.1923 8.69781 11.6723 8.72964 12.1915 8.87332C12.456 8.9465 12.7216 9.04617 13.0345 9.16359L13.0814 9.18118C13.4052 9.30263 13.7707 9.43804 14.1739 9.54657C14.5518 9.64827 14.9505 9.64827 15.3283 9.54657C15.7315 9.43804 16.097 9.30263 16.4209 9.18118L16.4677 9.16359C16.7806 9.04617 17.0463 8.9465 17.3107 8.87332C17.83 8.72964 18.3099 8.69781 18.9212 8.94028C20.3954 9.52507 21.1705 11.1748 20.8786 12.9115C20.6587 14.2196 19.7585 15.5174 18.6173 16.6685C17.4898 17.8059 16.2032 18.7245 15.3464 19.2807C14.9808 19.5181 14.5215 19.5181 14.1558 19.2807C13.2991 18.7245 12.0125 17.8059 10.8849 16.6685C9.74379 15.5174 8.84349 14.2196 8.62364 12.9115C8.33177 11.1748 9.10686 9.52506 10.5811 8.94029Z" fill="#00A747"/>
</svg>
