<svg width="25" height="24" viewBox="0 0 25 24" fill="none" xmlns="http://www.w3.org/2000/svg">
<g clip-path="url(#clip0_2085_12474)">
<path d="M7.52094 4.16773C5.59394 4.16773 3.91467 5.42106 2.75142 7.21587C1.43933 9.23785 0.75 11.8571 0.75 14.3697C0.75 15.061 0.818542 15.7101 0.955625 16.3016C1.02397 16.5875 1.11064 16.8688 1.2151 17.1436C1.31613 17.4013 1.43761 17.6505 1.57838 17.8888C2.25988 19.0236 3.3585 19.7756 5.09652 19.7756C6.56233 19.7756 7.67467 19.1186 8.97892 17.3826C9.72308 16.3916 10.0991 15.7904 11.5864 13.1526L12.3267 11.8415L12.5088 11.5232C12.5685 11.6211 12.6273 11.7151 12.688 11.817L14.7952 15.3371C15.5041 16.5219 16.4255 17.8398 17.2137 18.582C18.2379 19.5485 19.1642 19.7766 20.21 19.7766C21.2626 19.7766 22.0469 19.429 22.6138 18.9512C22.931 18.6815 23.1993 18.3592 23.4069 17.9985C23.9376 17.079 24.25 15.9158 24.25 14.3315C24.25 11.6681 23.5832 9.08608 22.2094 7.03669C20.9541 5.16452 19.314 4.16773 17.5917 4.16773C16.5665 4.16773 15.5472 4.625 14.6023 5.44848C13.9639 6.0066 13.3715 6.7116 12.8202 7.45577C12.1446 6.599 11.513 5.941 10.903 5.4426C9.7456 4.49673 8.63621 4.16675 7.52094 4.16675V4.16773ZM17.4693 6.17796C18.5924 6.17796 19.6117 6.92016 20.3989 8.13531C21.5074 9.84689 22.0116 12.2429 22.0116 14.402C22.0116 15.9177 21.6513 17.2416 20.2109 17.2416C19.643 17.2416 19.2053 17.0164 18.5816 16.2585C18.0959 15.67 17.2666 14.4196 15.8086 11.9913L15.2045 10.9847C14.8117 10.3279 14.402 9.68141 13.9756 9.04594C14.0441 8.93921 14.1137 8.8266 14.1822 8.72575C15.2789 7.09348 16.2551 6.17796 17.4693 6.17796ZM7.48079 6.71944C8.71944 6.71944 9.49592 7.49396 10.1001 8.13531C10.4007 8.4555 10.8217 8.98817 11.3084 9.68142L10.3096 11.2148C9.56837 12.3536 8.46681 14.1689 7.53171 15.4624C6.36552 17.0771 5.75942 17.2416 5.0975 17.2416C4.58442 17.2416 4.08113 17.0095 3.74331 16.4641C3.48579 16.047 3.28898 15.3576 3.28898 14.4607C3.28898 12.286 3.90585 10.0202 4.9144 8.49956C5.35894 7.82687 5.85831 7.2991 6.41546 6.9985C6.74138 6.81719 7.10784 6.7212 7.48079 6.71944Z" fill="white"/>
</g>
<defs>
<clipPath id="clip0_2085_12474">
<rect width="23.5" height="23.5" fill="white" transform="translate(0.75 0.22168)"/>
</clipPath>
</defs>
</svg>
